<?xml version="1.0" encoding="utf-8"?>
<!-- Generator: Adobe Illustrator 20.0.0, SVG Export Plug-In . SVG Version: 6.00 Build 0)  -->
<svg version="1.1" id="Layer_1" xmlns="http://www.w3.org/2000/svg" xmlns:xlink="http://www.w3.org/1999/xlink" x="0px" y="0px"
	 viewBox="0 0 405.8 54.6" style="enable-background:new 0 0 405.8 54.6;" xml:space="preserve" width="281px" height="38px">
<style type="text/css">
	.st0{fill:#FFFFFF;}
	.st1{fill:#31609B;}
</style>
<g>
	<path class="st0" d="M8.7,49.7c4.7,0,8.4-2.2,8.4-7.6v-2.6c0-1,0.2-1.8,0.2-1.8h-0.1c-1.3,2.7-3.7,4.5-7.4,4.5
		C4,42.2,0,37.8,0,30.9s3.7-11.2,9.5-11.2c6.3,0,7.7,4.3,7.7,4.3h0.1c0,0-0.1-0.3-0.1-0.8v-2.9h1.8v21.9c0,6.7-4.8,9.4-10.1,9.4
		c-2.4,0-4.8-0.6-6.9-1.7l0.9-1.6C2.8,48.1,5.5,49.7,8.7,49.7z M17.1,30.9c0-7.1-3.3-9.4-7.7-9.4c-4.7,0-7.5,3.4-7.5,9.4
		c0,5.9,3.3,9.6,8,9.6C13.8,40.4,17.1,38,17.1,30.9z"/>
	<path class="st0" d="M26.5,11.4h1.8v25.8c0,3.1,1.6,3.4,2.6,3.4c0.4,0,0.7,0,0.7,0v1.7c0,0-0.4,0.1-0.8,0.1c-1.3,0-4.3-0.5-4.3-4.6
		V11.4z"/>
	<path class="st0" d="M46.6,19.7c6.3,0,11.4,5,11.4,11.4c0,6.6-5.1,11.7-11.4,11.7s-11.4-5.1-11.4-11.7
		C35.2,24.7,40.3,19.7,46.6,19.7z M46.6,41c5.2,0,9.5-4.3,9.5-9.9c0-5.5-4.2-9.6-9.5-9.6c-5.2,0-9.5,4.1-9.5,9.6
		C37.1,36.7,41.3,41,46.6,41z"/>
	<path class="st0" d="M64.1,11.4H66v11.4c0,1-0.2,1.8-0.2,1.8h0.1c0,0,1.9-5,8-5c5.9,0,9.5,4.7,9.5,11.5c0,7-4.1,11.5-9.9,11.5
		c-5.5,0-7.6-5-7.6-5h-0.1c0,0,0.2,0.8,0.2,1.9v2.5h-1.8V11.4z M73.6,41c4.3,0,7.8-3.6,7.8-9.7c0-5.9-3.2-9.7-7.7-9.7
		c-4,0-7.8,2.9-7.8,9.8C65.9,36.2,68.4,41,73.6,41z"/>
	<path class="st0" d="M89.3,20.2h1.8v13.3c0,3.8,0.5,7.4,5.4,7.4c5.5,0,9-4.8,9-10V20.2h1.8v22h-1.8v-3.9c0-1,0.2-1.8,0.2-1.8h-0.1
		c-0.7,2.1-3.8,6.2-9.1,6.2c-5.4,0-7.3-3-7.3-8.6C89.3,34.2,89.3,20.2,89.3,20.2z"/>
	<path class="st0" d="M114.5,38.2c0,0,2.5,2.8,6.8,2.8c2.7,0,5.1-1.4,5.1-4.1c0-5.6-12.1-4-12.1-11.2c0-3.9,3.3-5.9,7-5.9
		c4.5,0,6.5,2.4,6.5,2.4l-1.1,1.5c0,0-1.8-2.1-5.5-2.1c-2.5,0-5,1.1-5,4c0,5.7,12.1,4,12.1,11.3c0,3.5-3,5.9-7,5.9
		c-5.3,0-8-3.2-8-3.2L114.5,38.2z"/>
	<path class="st0" d="M215.6,19.4c5.2,0,6.9,3.5,6.9,3.5h0.1c0,0-0.1-0.7-0.1-1.5V11.2h4.3v31.1h-4v-2.1c0-0.9,0-1.5,0-1.5h-0.1
		c0,0-1.8,4.1-7.3,4.1c-6,0-9.8-4.8-9.8-11.7C205.6,24,209.7,19.4,215.6,19.4z M216.2,39.1c3.3,0,6.4-2.3,6.4-8c0-4-2.1-7.9-6.3-7.9
		c-3.5,0-6.4,2.9-6.4,8C209.9,36,212.5,39.1,216.2,39.1z"/>
	<path class="st0" d="M240.9,19.4c6.3,0,9.6,4.7,9.6,10.4c0,0.6-0.1,1.8-0.1,1.8h-16.2c0.2,4.9,3.7,7.4,7.7,7.4
		c3.8,0,6.6-2.6,6.6-2.6l1.8,3.1c0,0-3.3,3.2-8.6,3.2c-7,0-11.8-5.1-11.8-11.7C229.7,24,234.5,19.4,240.9,19.4z M246.1,28.5
		c-0.1-3.8-2.5-5.7-5.4-5.7c-3.3,0-5.9,2-6.5,5.7H246.1z"/>
	<path class="st0" d="M250.5,20h4.5l5.4,15.1c0.4,1.2,0.7,3,0.7,3h0.1c0,0,0.4-1.8,0.8-3l5.4-15.1h4.5l-8.2,22.3h-4.9L250.5,20z"/>
	<path class="st0" d="M283,19.4c6.3,0,9.6,4.7,9.6,10.4c0,0.6-0.1,1.8-0.1,1.8h-16.2c0.2,4.9,3.7,7.4,7.7,7.4c3.8,0,6.6-2.6,6.6-2.6
		l1.8,3.1c0,0-3.3,3.2-8.6,3.2c-7,0-11.8-5.1-11.8-11.7C271.9,24,276.7,19.4,283,19.4z M288.3,28.5c-0.1-3.8-2.5-5.7-5.4-5.7
		c-3.3,0-5.9,2-6.5,5.7H288.3z"/>
	<path class="st0" d="M295.4,11.2h4.3v24.3c0,2.7,1.1,3.2,2.4,3.2c0.4,0,0.7,0,0.7,0v3.8c0,0-0.7,0.1-1.4,0.1c-2.4,0-6-0.7-6-6.3
		V11.2z"/>
	<path class="st0" d="M315.5,19.4c6.6,0,12,4.9,12,11.6c0,6.8-5.4,11.7-12,11.7c-6.6,0-12-4.9-12-11.7
		C303.5,24.3,308.8,19.4,315.5,19.4z M315.5,39.1c4.2,0,7.7-3.3,7.7-8c0-4.6-3.4-7.9-7.7-7.9c-4.2,0-7.7,3.3-7.7,7.9
		C307.8,35.7,311.3,39.1,315.5,39.1z"/>
	<path class="st0" d="M330.4,20h3.9v1.9c0,0.9-0.1,1.6-0.1,1.6h0.1c0,0,1.9-4,7.5-4c6,0,9.8,4.8,9.8,11.7c0,7.1-4.3,11.7-10.1,11.7
		c-4.9,0-6.8-3.7-6.8-3.7h-0.1c0,0,0.1,0.8,0.1,1.9v10h-4.3V20z M340.8,39.1c3.5,0,6.4-2.9,6.4-8c0-4.8-2.6-8-6.3-8
		c-3.3,0-6.4,2.3-6.4,8C334.5,35.2,336.7,39.1,340.8,39.1z"/>
	<path class="st0" d="M364.2,19.4c6.3,0,9.6,4.7,9.6,10.4c0,0.6-0.1,1.8-0.1,1.8h-16.2c0.2,4.9,3.7,7.4,7.7,7.4
		c3.8,0,6.6-2.6,6.6-2.6l1.8,3.1c0,0-3.3,3.2-8.6,3.2c-7,0-11.8-5.1-11.8-11.7C353,24,357.8,19.4,364.2,19.4z M369.5,28.5
		c-0.1-3.8-2.5-5.7-5.4-5.7c-3.3,0-5.9,2-6.5,5.7H369.5z"/>
	<path class="st0" d="M376.8,20h4.1v3.9c0,0.9-0.1,1.7-0.1,1.7h0.1c1-3.3,3.6-5.8,7-5.8c0.6,0,1.1,0.1,1.1,0.1V24
		c0,0-0.6-0.1-1.2-0.1c-2.7,0-5.2,1.9-6.3,5.2c-0.4,1.3-0.5,2.6-0.5,4v9.1h-4.3V20z"/>
	<path class="st0" d="M391.4,36.5c0,0,2.5,2.6,6.4,2.6c1.8,0,3.7-1,3.7-2.8c0-4.1-11.4-3.3-11.4-10.5c0-4,3.6-6.3,8.1-6.3
		c4.9,0,7.2,2.5,7.2,2.5l-1.7,3.2c0,0-2-2-5.5-2c-1.8,0-3.7,0.8-3.7,2.7c0,4,11.4,3.1,11.4,10.4c0,3.7-3.2,6.5-8.1,6.5
		c-5.5,0-8.5-3.3-8.5-3.3L391.4,36.5z"/>
</g>
<circle class="st0" cx="167.9" cy="27.3" r="27.3"/>
<g>
	<path class="st1" d="M156.5,34.1c0-4.3-3.6-4.6-3.6-4.6v-3.7c0,0,3.6-0.3,3.6-4.7v-3.6c0-6.7,4.8-7.4,6.9-7.4c0.6,0,1,0,1,0v3.1
		c0,0-0.3,0-0.6,0c-1.1,0-3.7,0.4-3.7,4.5v4.4c0,4.2-3.4,5.4-3.4,5.4v0.1c0,0,3.4,1,3.4,5.4v4.9c0,4.1,2.6,4.5,3.7,4.5
		c0.3,0,0.6,0,0.6,0v3.1c0,0-0.4,0.1-1,0.1c-2,0-6.9-0.7-6.9-7.4V34.1z"/>
	<path class="st1" d="M172.1,42.4c1.1,0,3.7-0.4,3.7-4.5V33c0-4.4,3.4-5.4,3.4-5.4v-0.1c0,0-3.4-1.2-3.4-5.4v-4.4
		c0-4.1-2.6-4.5-3.7-4.5c-0.4,0-0.6,0-0.6,0v-3.1c0,0,0.4,0,1,0c2,0,6.9,0.7,6.9,7.4v3.6c0,4.4,3.6,4.7,3.6,4.7v3.7
		c0,0-3.6,0.3-3.6,4.6v4.1c0,6.8-4.8,7.4-6.9,7.4c-0.6,0-1-0.1-1-0.1v-3.1C171.5,42.4,171.7,42.4,172.1,42.4z"/>
</g>
</svg>
