<?xml version="1.0" encoding="utf-8"?>
<!-- Generator: Adobe Illustrator 20.0.0, SVG Export Plug-In . SVG Version: 6.00 Build 0)  -->
<svg version="1.1" id="Layer_1" xmlns="http://www.w3.org/2000/svg" xmlns:xlink="http://www.w3.org/1999/xlink" x="0px" y="0px"
	 viewBox="0 0 176.1 80.4" style="enable-background:new 0 0 176.1 80.4;" xml:space="preserve" width="73px" height="33px">
<style type="text/css">
	.st0{fill:#71C1F2;}
	.st1{fill:#4A8AD2;stroke:#4A8AD2;stroke-width:3;stroke-miterlimit:10;}
</style>
<g id="circle-cheveron-right_1_">
	<path class="st0" d="M41.1,1.5C19.7,1.5,2.4,18.8,2.4,40.2s17.3,38.7,38.7,38.7s38.7-17.3,38.7-38.7S62.5,1.5,41.1,1.5z M41.1,76.1
		C21.3,76.1,5.2,60,5.2,40.2c0-19.8,16.1-35.9,35.9-35.9C60.9,4.3,77,20.4,77,40.2C77,60,60.9,76.1,41.1,76.1z"/>
	<path class="st0" d="M39.4,22.6c-0.4-0.6-1.3-0.8-2-0.4c-0.6,0.4-0.8,1.3-0.4,2l10.6,16.2l-10.6,16c-0.4,0.6-0.2,1.5,0.4,2
		c0.2,0.2,0.5,0.2,0.8,0.2c0.5,0,0.9-0.2,1.2-0.6l11.1-16.8c0.3-0.5,0.3-1.1,0-1.5L39.4,22.6z"/>
</g>
<g id="circle-cheveron-right_2_">
	<path class="st1" d="M135.9,1.5c-21.4,0-38.7,17.3-38.7,38.7s17.3,38.7,38.7,38.7s38.7-17.3,38.7-38.7S157.2,1.5,135.9,1.5z
		 M135.9,76.1C116.1,76.1,100,60,100,40.2c0-19.8,16.1-35.9,35.9-35.9c19.8,0,35.9,16.1,35.9,35.9C171.8,60,155.7,76.1,135.9,76.1z"
		/>
	<path class="st1" d="M134.2,22.6c-0.4-0.6-1.3-0.8-2-0.4c-0.6,0.4-0.8,1.3-0.4,2l10.6,16.2l-10.6,16c-0.4,0.6-0.2,1.5,0.4,2
		c0.2,0.2,0.5,0.2,0.8,0.2c0.5,0,0.9-0.2,1.2-0.6l11.1-16.8c0.3-0.5,0.3-1.1,0-1.5L134.2,22.6z"/>
</g>
</svg>
